<svg class="css-ze2te4 css-qd6ojx" viewBox="0 0 140 111.65740234141786"><g transform="translate(-7.942158412536037, -17.130144314365676) scale(1.557285846760516)" class="css-1ipq7sd" fill="url(#SvgjsLinearGradient3081)"><g xmlns="http://www.w3.org/2000/svg"><g><path d="M83.5,16h-3.2l-4.5-5H55.3l-4.5,5H16.5c-6.3,0-11.4,5.1-11.4,11.4v43.9c0,6.3,5.1,11.4,11.4,11.4h67.1    c6.3,0,11.4-5.1,11.4-11.4V27.4C94.9,21.1,89.8,16,83.5,16z M85.9,71.3c0,1.3-1.1,2.4-2.4,2.4H16.5c-1.3,0-2.4-1.1-2.4-2.4V27.4    c0-1.3,1.1-2.4,2.4-2.4h38.3l4.5-5h12.5l4.5,5h7.2c1.3,0,2.4,1.1,2.4,2.4V71.3z"></path><path d="M50,34.2c-8.7,0-15.8,7.1-15.8,15.8S41.3,65.8,50,65.8S65.8,58.7,65.8,50S58.7,34.2,50,34.2z M50,56.8    c-3.7,0-6.8-3-6.8-6.8s3-6.8,6.8-6.8s6.8,3,6.8,6.8S53.7,56.8,50,56.8z"></path><circle cx="75.4" cy="35" r="3.7"></circle></g></g></g></svg>