<svg viewBox="0 0 350 225.2507774838013" preserveAspectRatio="xMidYMid meet" class="css-g5ufxp" id="adabffhf"><defs id="SvgjsDefs1001"><linearGradient id="SvgjsLinearGradient1013"><stop id="SvgjsStop1014" stop-color="#b88746" offset="0"></stop><stop id="SvgjsStop1015" stop-color="#fdf5a6" offset="1"></stop></linearGradient><linearGradient id="SvgjsLinearGradient1016"><stop id="SvgjsStop1017" stop-color="#b88746" offset="0"></stop><stop id="SvgjsStop1018" stop-color="#fdf5a6" offset="1"></stop></linearGradient></defs><g id="SvgjsG1007" featurekey="symbolFeature-0" transform="matrix(1.557285846760516,0,0,1.557285846760516,97.05784158746397,-17.130144314365676)" fill="#fff"><g xmlns="http://www.w3.org/2000/svg"><g><path d="M83.5,16h-3.2l-4.5-5H55.3l-4.5,5H16.5c-6.3,0-11.4,5.1-11.4,11.4v43.9c0,6.3,5.1,11.4,11.4,11.4h67.1    c6.3,0,11.4-5.1,11.4-11.4V27.4C94.9,21.1,89.8,16,83.5,16z M85.9,71.3c0,1.3-1.1,2.4-2.4,2.4H16.5c-1.3,0-2.4-1.1-2.4-2.4V27.4    c0-1.3,1.1-2.4,2.4-2.4h38.3l4.5-5h12.5l4.5,5h7.2c1.3,0,2.4,1.1,2.4,2.4V71.3z"></path><path d="M50,34.2c-8.7,0-15.8,7.1-15.8,15.8S41.3,65.8,50,65.8S65.8,58.7,65.8,50S58.7,34.2,50,34.2z M50,56.8    c-3.7,0-6.8-3-6.8-6.8s3-6.8,6.8-6.8s6.8,3,6.8,6.8S53.7,56.8,50,56.8z"></path><circle cx="75.4" cy="35" r="3.7"></circle></g></g></g><g id="SvgjsG1008" featurekey="nameFeature-0" transform="matrix(2.11301599280136,0,0,2.11301599280136,-5.240276679756331,109.17942888984858)" fill="#fff"><path d="M2.48 40 l0 -28 l12 0 c7.08 0 11.64 3.64 11.64 9.84 l0 0.08 c0 6.6 -5.08 10.08 -12.04 10.08 l-3.84 0 l0 8 l-7.76 0 z M10.24 25.92 l3.68 0 c2.76 0 4.44 -1.44 4.44 -3.64 l0 -0.08 c0 -2.4 -1.68 -3.68 -4.48 -3.68 l-3.64 0 l0 7.4 z M28.96 16.4 l0 -5.6 l7.92 0 l0 5.6 l-7.92 0 z M29.12 40 l0 -21.64 l7.6 0 l0 21.64 l-7.6 0 z M40.96 40 l0 -21.64 l7.6 0 l0 3.04 c1.4 -1.8 3.4 -3.52 6.48 -3.52 c4.6 0 7.36 3.04 7.36 7.96 l0 14.16 l-7.6 0 l0 -11.72 c0 -2.36 -1.24 -3.64 -3.04 -3.64 c-1.84 0 -3.2 1.28 -3.2 3.64 l0 11.72 l-7.6 0 z M80.52 40.48 c-3.28 0 -5.2 -1.48 -6.6 -3.12 l0 2.64 l-7.6 0 l0 -29.2 l7.6 0 l0 10.44 c1.48 -1.8 3.32 -3.36 6.56 -3.36 c5.16 0 9.6 4.28 9.6 11.2 l0 0.08 c0 7.04 -4.44 11.32 -9.56 11.32 z M78.16 34.12 c2.48 0 4.44 -2 4.44 -4.92 l0 -0.08 c0 -2.84 -1.96 -4.88 -4.44 -4.88 c-2.44 0 -4.4 2.04 -4.4 4.88 l0 0.08 c0 2.88 1.96 4.92 4.4 4.92 z M104.39999999999999 40.52 c-6.92 0 -11.92 -5.08 -11.92 -11.24 l0 -0.08 c0 -6.16 5.04 -11.32 12 -11.32 c6.92 0 11.92 5.08 11.92 11.24 l0 0.08 c0 6.16 -5.04 11.32 -12 11.32 z M104.47999999999999 34.08 c2.76 0 4.52 -2.2 4.52 -4.8 l0 -0.08 c0 -2.64 -1.92 -4.88 -4.6 -4.88 c-2.76 0 -4.52 2.2 -4.52 4.8 l0 0.08 c0 2.64 1.92 4.88 4.6 4.88 z M130.64000000000001 40.52 c-6.92 0 -11.92 -5.08 -11.92 -11.24 l0 -0.08 c0 -6.16 5.04 -11.32 12 -11.32 c6.92 0 11.92 5.08 11.92 11.24 l0 0.08 c0 6.16 -5.04 11.32 -12 11.32 z M130.72 34.08 c2.76 0 4.52 -2.2 4.52 -4.8 l0 -0.08 c0 -2.64 -1.92 -4.88 -4.6 -4.88 c-2.76 0 -4.52 2.2 -4.52 4.8 l0 0.08 c0 2.64 1.92 4.88 4.6 4.88 z M145.84 40 l0 -29.2 l7.6 0 l0 14.8 l5.88 -7.24 l8.6 0 l-7.52 8.68 l7.72 12.96 l-8.36 0 l-4.36 -7.36 l-1.96 2.28 l0 5.08 l-7.6 0 z"></path></g><g id="SvgjsG1009" featurekey="sloganFeature-0" transform="matrix(1.0590817276242979,0,0,1.0590817276242979,33.79264697191097,203.85732577777526)" fill="#fff"><path d="M8.32 20.2 c-4 0 -7.18 -3.2 -7.18 -7.2 s3.18 -7.2 7.18 -7.2 s7.18 3.2 7.18 7.2 s-3.18 7.2 -7.18 7.2 z M8.32 18.48 c3.04 0 5.32 -2.38 5.32 -5.48 s-2.28 -5.48 -5.32 -5.48 c-3.06 0 -5.34 2.38 -5.34 5.48 s2.28 5.48 5.34 5.48 z M27.94 6 l1.8 0 l0 14.2 l-0.22 0 l-9.4 -9.98 l0 9.78 l-1.78 0 l0 -14.2 l0.2 0 l9.4 9.98 l0 -9.78 z M41.52 18.28 l0.12 1.72 l-8.52 0 l0 -14 l8.12 0 l0.14 1.72 l-6.46 0 l0 3.42 l4.38 0 l0 1.72 l-4.38 0 l0 5.42 l6.6 0 z M57.70000000000001 20.2 c-4 0 -7.18 -3.2 -7.18 -7.2 s3.18 -7.2 7.18 -7.2 s7.18 3.2 7.18 7.2 s-3.18 7.2 -7.18 7.2 z M57.70000000000001 18.48 c3.04 0 5.32 -2.38 5.32 -5.48 s-2.28 -5.48 -5.32 -5.48 c-3.06 0 -5.34 2.38 -5.34 5.48 s2.28 5.48 5.34 5.48 z M69.52000000000001 7.720000000000001 l0 4.32 l4.28 0 l0 1.72 l-4.28 0 l0 6.24 l-1.8 0 l0 -14 l7.96 0 l0.12 1.72 l-6.28 0 z M93.96000000000001 7.720000000000001 l-4.08 0 l0 12.28 l-1.8 0 l0 -12.28 l-4.1 0 l0.12 -1.72 l9.74 0 z M104.88000000000001 6 l1.8 0 l0 14 l-1.8 0 l0 -6.44 l-6.94 0 l0 6.44 l-1.8 0 l0 -14 l1.8 0 l0 5.84 l6.94 0 l0 -5.84 z M118.46000000000001 18.28 l0.12 1.72 l-8.52 0 l0 -14 l8.12 0 l0.14 1.72 l-6.46 0 l0 3.42 l4.38 0 l0 1.72 l-4.38 0 l0 5.42 l6.6 0 z M135.62000000000003 11.16 c1.76 0.64 2.78 2.24 2.78 4.28 c0 2.38 -1.18 4.48 -5 4.56 l-5.38 0 l0 -14 l5.6 0 c2.46 0 3.14 1.8 3.14 2.94 c0 1 -0.6 1.8 -1.14 2.22 z M133.40000000000003 7.619999999999999 l-3.58 0 l0 3.12 l3.2 0 c1.42 0 1.98 -0.72 1.98 -1.58 c0 -0.62 -0.4 -1.54 -1.6 -1.54 z M133.24 18.28 c2.32 0 3.32 -1.16 3.32 -2.84 c0 -1.88 -1.04 -3.2 -3.28 -3.2 l-3.46 0 l0 6.04 l3.42 0 z M149.38000000000002 18.28 l0.12 1.72 l-8.52 0 l0 -14 l8.12 0 l0.14 1.72 l-6.46 0 l0 3.42 l4.38 0 l0 1.72 l-4.38 0 l0 5.42 l6.6 0 z M151.32000000000002 18.54 c0.88 0.82 2.7 1.66 4.52 1.66 c2.8 0 4.58 -1.44 4.58 -3.7 c0 -1.84 -0.88 -2.92 -3.92 -4.64 c-2.32 -1.34 -2.88 -1.78 -2.88 -2.66 c0 -0.94 0.88 -1.68 2.36 -1.68 c0.86 0 2 0.38 2.66 0.8 l0.96 -1.44 c-0.94 -0.62 -2.42 -1.08 -3.6 -1.08 c-2.58 0 -4.3 1.48 -4.3 3.42 c0 1.72 0.86 2.58 3.5 4.02 c2.34 1.28 3.3 2.22 3.3 3.24 c0 1.2 -1.04 1.92 -2.66 1.92 c-1.4 0 -2.8 -0.66 -3.5 -1.3 z M171.76000000000002 7.720000000000001 l-4.08 0 l0 12.28 l-1.8 0 l0 -12.28 l-4.1 0 l0.12 -1.72 l9.74 0 z M186.08 6 c3.28 0 4.82 2.48 4.82 5.1 s-1.54 5.1 -4.82 5.1 l-3.5 0 l0 3.8 l-1.8 0 l0 -14 l5.3 0 z M186 14.48 c1.84 0 3.06 -1.42 3.06 -3.38 s-1.22 -3.38 -3.06 -3.38 l-3.42 0 l0 6.76 l3.42 0 z M193.72 20 l0 -14 l1.8 0 l0 14 l-1.8 0 z M198.34 13 c0 -4.04 3.18 -7.2 7.18 -7.2 c1.68 0 3.28 0.56 4.7 1.64 l-0.9 1.4 c-1.18 -0.9 -2.4 -1.34 -3.8 -1.34 c-3.02 0 -5.38 2.42 -5.38 5.5 s2.38 5.5 5.38 5.5 c1.52 0 2.82 -0.48 3.8 -1.42 l0.92 1.38 c-1.22 1.1 -2.94 1.74 -4.72 1.74 c-4 0 -7.18 -3.18 -7.18 -7.2 z M228.08 18.28 l0.12 1.72 l-8.52 0 l0 -14 l8.12 0 l0.14 1.72 l-6.46 0 l0 3.42 l4.38 0 l0 1.72 l-4.38 0 l0 5.42 l6.6 0 z M229.60000000000002 6 l1.96 0 l4.24 10.24 l4.26 -10.24 l1.96 0 l-6.1 14.2 l-0.22 0 z M252.62 18.28 l0.12 1.72 l-8.52 0 l0 -14 l8.12 0 l0.14 1.72 l-6.46 0 l0 3.42 l4.38 0 l0 1.72 l-4.38 0 l0 5.42 l6.6 0 z M265.52000000000004 11.06 c0 2.26 -1.06 4.2 -3.24 4.84 l3.02 4.1 l-2.16 0 l-2.86 -3.88 l-3.14 0 l0 3.88 l-1.8 0 l0 -14 l5.28 0 c3.3 0 4.9 2.28 4.9 5.06 z M257.14 7.68 l0 6.74 l3.4 0 c2.26 0 3.18 -1.66 3.18 -3.36 s-0.92 -3.38 -3.18 -3.38 l-3.4 0 z"></path></g></svg>